<mxfile host="app.diagrams.net" modified="2023-05-23T00:04:28.721Z" agent="Mozilla/5.0 (X11; Ubuntu; Linux x86_64; rv:109.0) Gecko/20100101 Firefox/110.0" etag="mmg95Ls_6wOJES3KSVGU" version="21.3.2" type="device">
  <diagram name="Page-1" id="ah128K4O3ycS3k-kVVyU">
    <mxGraphModel dx="1195" dy="592" grid="1" gridSize="10" guides="1" tooltips="1" connect="1" arrows="1" fold="1" page="1" pageScale="1" pageWidth="850" pageHeight="1100" math="0" shadow="0">
      <root>
        <mxCell id="0" />
        <mxCell id="1" parent="0" />
        <mxCell id="etHsh_VyGD0f537VYUTh-1" value="Usuário" style="shape=umlActor;verticalLabelPosition=bottom;verticalAlign=top;html=1;" vertex="1" parent="1">
          <mxGeometry x="130" y="330" width="30" height="60" as="geometry" />
        </mxCell>
        <mxCell id="etHsh_VyGD0f537VYUTh-2" value="Definir fontes de dados para ingestão." style="ellipse;whiteSpace=wrap;html=1;" vertex="1" parent="1">
          <mxGeometry x="250" y="120" width="140" height="70" as="geometry" />
        </mxCell>
        <mxCell id="etHsh_VyGD0f537VYUTh-3" value="Definir operações de transformações de dados" style="ellipse;whiteSpace=wrap;html=1;" vertex="1" parent="1">
          <mxGeometry x="260" y="360" width="140" height="70" as="geometry" />
        </mxCell>
        <mxCell id="etHsh_VyGD0f537VYUTh-4" value="Monitorar a qualidade dos dados a serem coletados." style="ellipse;whiteSpace=wrap;html=1;" vertex="1" parent="1">
          <mxGeometry x="260" y="280" width="140" height="70" as="geometry" />
        </mxCell>
        <mxCell id="etHsh_VyGD0f537VYUTh-5" value="Definir schemas e restrições para os dados a serem coletados." style="ellipse;whiteSpace=wrap;html=1;" vertex="1" parent="1">
          <mxGeometry x="250" y="200" width="140" height="70" as="geometry" />
        </mxCell>
        <mxCell id="etHsh_VyGD0f537VYUTh-6" value="Consultar dados via SQL." style="ellipse;whiteSpace=wrap;html=1;" vertex="1" parent="1">
          <mxGeometry x="260" y="440" width="140" height="70" as="geometry" />
        </mxCell>
        <mxCell id="etHsh_VyGD0f537VYUTh-7" value="Importar dados coletados, transformados ou consultados por SQL para o formato CSV." style="ellipse;whiteSpace=wrap;html=1;" vertex="1" parent="1">
          <mxGeometry x="250" y="520" width="160" height="90" as="geometry" />
        </mxCell>
        <mxCell id="etHsh_VyGD0f537VYUTh-9" value="" style="endArrow=classic;html=1;rounded=0;exitX=0.639;exitY=0.342;exitDx=0;exitDy=0;exitPerimeter=0;" edge="1" parent="1" source="etHsh_VyGD0f537VYUTh-1" target="etHsh_VyGD0f537VYUTh-5">
          <mxGeometry width="50" height="50" relative="1" as="geometry">
            <mxPoint x="170" y="340" as="sourcePoint" />
            <mxPoint x="360" y="360" as="targetPoint" />
          </mxGeometry>
        </mxCell>
        <mxCell id="etHsh_VyGD0f537VYUTh-10" value="" style="endArrow=classic;html=1;rounded=0;entryX=-0.018;entryY=0.614;entryDx=0;entryDy=0;entryPerimeter=0;exitX=0.833;exitY=0.022;exitDx=0;exitDy=0;exitPerimeter=0;" edge="1" parent="1" source="etHsh_VyGD0f537VYUTh-1" target="etHsh_VyGD0f537VYUTh-2">
          <mxGeometry width="50" height="50" relative="1" as="geometry">
            <mxPoint x="160" y="330" as="sourcePoint" />
            <mxPoint x="269" y="253" as="targetPoint" />
          </mxGeometry>
        </mxCell>
        <mxCell id="etHsh_VyGD0f537VYUTh-11" value="" style="endArrow=classic;html=1;rounded=0;" edge="1" parent="1" source="etHsh_VyGD0f537VYUTh-1" target="etHsh_VyGD0f537VYUTh-4">
          <mxGeometry width="50" height="50" relative="1" as="geometry">
            <mxPoint x="180" y="350" as="sourcePoint" />
            <mxPoint x="289" y="273" as="targetPoint" />
          </mxGeometry>
        </mxCell>
        <mxCell id="etHsh_VyGD0f537VYUTh-12" value="" style="endArrow=classic;html=1;rounded=0;entryX=0;entryY=0.5;entryDx=0;entryDy=0;" edge="1" parent="1" source="etHsh_VyGD0f537VYUTh-1" target="etHsh_VyGD0f537VYUTh-3">
          <mxGeometry width="50" height="50" relative="1" as="geometry">
            <mxPoint x="180" y="370" as="sourcePoint" />
            <mxPoint x="267" y="350" as="targetPoint" />
          </mxGeometry>
        </mxCell>
        <mxCell id="etHsh_VyGD0f537VYUTh-13" value="" style="endArrow=classic;html=1;rounded=0;" edge="1" parent="1" source="etHsh_VyGD0f537VYUTh-1">
          <mxGeometry width="50" height="50" relative="1" as="geometry">
            <mxPoint x="170" y="400" as="sourcePoint" />
            <mxPoint x="250" y="460" as="targetPoint" />
          </mxGeometry>
        </mxCell>
        <mxCell id="etHsh_VyGD0f537VYUTh-14" value="" style="endArrow=classic;html=1;rounded=0;" edge="1" parent="1" source="etHsh_VyGD0f537VYUTh-1">
          <mxGeometry width="50" height="50" relative="1" as="geometry">
            <mxPoint x="180" y="410" as="sourcePoint" />
            <mxPoint x="250" y="540" as="targetPoint" />
          </mxGeometry>
        </mxCell>
      </root>
    </mxGraphModel>
  </diagram>
</mxfile>
